<svg width="576" height="456" viewBox="0 0 576 456" fill="none" xmlns="http://www.w3.org/2000/svg">
<g opacity="0.5">
<path d="M2.29141 204.545C17.8226 203.623 57.771 205.278 81.8322 198.656C87.5455 180.978 99.1808 166.095 113.972 153.203C126.282 142.476 142.496 120.789 149.555 112.215C168.346 89.2527 182.19 89.6089 200.93 78.4152C229.388 61.2306 275.175 16.1326 284.313 6.97451C294.345 -2.97096 312.497 7.49131 309.127 32.3C304.837 63.9286 270.387 94.5375 250.247 109.285C238.838 117.544 223.73 135.181 227.364 141.032C230.998 146.882 263.171 162.745 285.115 165.411C310.223 168.486 341.126 157.641 386.265 148.243C431.304 138.942 487.696 134.438 504.214 134.113C520.732 133.788 535.65 137.512 536.682 150.373C537.715 163.234 527.417 166.058 503.658 171.494C479.799 176.929 413.861 193.458 394.849 198.816C382.076 202.42 356.318 212.595 361.04 218.45C364.975 223.313 419.587 218.9 439.771 216.811C486.968 211.871 540.57 212.299 552.529 214.032C568.64 216.277 578.085 227.691 571.401 241.211C564.716 254.731 538.408 255.014 501.411 257.03C482.714 258.038 395.951 264.488 389.026 265.151C382.1 265.813 361.535 264.34 360.386 278.577C359.237 292.813 400.562 296.353 426.55 301.509C452.538 306.862 515.893 315.936 532.675 323.327C549.456 330.717 545.391 355.919 528.178 357.031C510.965 358.045 450.269 351.554 422.397 347.379C394.624 343.205 351.839 334.219 342.647 332.795C333.456 331.272 328.365 342.228 337.819 351.762C370.61 384.836 448.311 415.828 460.542 423.298C473.661 431.365 472.493 450.052 456.752 453.643C441.012 457.235 389.097 432.485 373.007 425.493C356.916 418.501 330.694 398.609 301.06 390.174C280.317 384.349 193.104 380.413 143.5 370.31C124.33 366.371 96.8551 361.901 76.0468 348.065C52.8712 332.735 17.1359 340.296 1.70784 340.229" stroke="#495F68" stroke-width="2" stroke-miterlimit="10" stroke-linecap="round" stroke-linejoin="round"/>
<path d="M291.785 178.593C292.999 172.169 277.166 220.264 221.863 247.52C194.707 260.853 161.849 266.151 111.911 264.848" stroke="#495F68" stroke-width="2" stroke-miterlimit="10" stroke-linecap="round" stroke-linejoin="round"/>
<path d="M249.017 372.544C249.017 372.544 259.647 246.594 350.576 214.25" stroke="#495F68" stroke-width="2" stroke-miterlimit="10" stroke-linecap="round" stroke-linejoin="round"/>
<path d="M188.114 344.987C188.114 344.987 259.958 288.924 300.895 175.665" stroke="#495F68" stroke-width="2" stroke-miterlimit="10" stroke-linecap="round" stroke-linejoin="round"/>
<path d="M229.318 170.165C229.318 170.165 224.26 150.463 226.887 137.518" stroke="#495F68" stroke-width="2" stroke-miterlimit="10" stroke-linecap="round" stroke-linejoin="round"/>
<path d="M234.96 156.497C234.96 156.497 227.973 148.555 226.727 139.352" stroke="#495F68" stroke-width="2" stroke-miterlimit="10" stroke-linecap="round" stroke-linejoin="round"/>
<path d="M119.496 358.331C119.496 358.331 94.1814 355.099 95.0472 295.385" stroke="#495F68" stroke-width="2" stroke-miterlimit="10" stroke-linecap="round" stroke-linejoin="round"/>
<path d="M268.328 90.5723C268.328 90.5723 249.989 77.5379 242.544 60.7922" stroke="#495F68" stroke-width="2" stroke-miterlimit="10" stroke-linecap="round" stroke-linejoin="round"/>
<path d="M270.22 87.5146C270.22 87.5146 265.13 75.2295 247.979 62.0024" stroke="#495F68" stroke-width="2" stroke-miterlimit="10" stroke-linecap="round" stroke-linejoin="round"/>
<path d="M360.848 263.25C360.848 263.25 359.823 248.609 358.388 237.229C356.954 225.85 360.352 217.458 360.352 217.458" stroke="#495F68" stroke-width="2" stroke-miterlimit="10" stroke-linecap="round" stroke-linejoin="round"/>
<path d="M292.59 382.325C292.59 382.325 306.59 369.529 313.555 359.768C320.52 349.908 327.865 343.709 329.754 341.542" stroke="#495F68" stroke-width="2" stroke-miterlimit="10" stroke-linecap="round" stroke-linejoin="round"/>
<path d="M359.995 208.654C359.995 208.654 355.879 199.736 352.865 187.756C351.115 180.727 348.192 170.429 347.039 162.513" stroke="#495F68" stroke-width="2" stroke-miterlimit="10" stroke-linecap="round" stroke-linejoin="round"/>
<path d="M344.163 325.383C344.168 324.296 347.259 318.573 349.377 308.89C352 296.836 356.696 285.78 358.289 283.314" stroke="#495F68" stroke-width="2" stroke-miterlimit="10" stroke-linecap="round" stroke-linejoin="round"/>
<path d="M343.536 402.126C343.536 402.126 358.952 382.116 362.543 375.011" stroke="#495F68" stroke-width="2" stroke-miterlimit="10" stroke-linecap="round" stroke-linejoin="round"/>
<path d="M349.071 402.94C349.071 402.94 359.905 390.427 364.51 377.392" stroke="#495F68" stroke-width="2" stroke-miterlimit="10" stroke-linecap="round" stroke-linejoin="round"/>
<path d="M394.257 428.75C394.257 428.75 402.33 414.444 406.734 402.2" stroke="#495F68" stroke-width="2" stroke-miterlimit="10" stroke-linecap="round" stroke-linejoin="round"/>
<path d="M398.801 430.055C398.801 430.055 405.684 416.338 408.807 403" stroke="#495F68" stroke-width="2" stroke-miterlimit="10" stroke-linecap="round" stroke-linejoin="round"/>
<path d="M410.757 340.308C410.757 340.308 415.374 324.504 417.736 304.339" stroke="#495F68" stroke-width="2" stroke-miterlimit="10" stroke-linecap="round" stroke-linejoin="round"/>
<path d="M416.506 337.563C416.506 337.563 419.315 328.279 420.199 306.624" stroke="#495F68" stroke-width="2" stroke-miterlimit="10" stroke-linecap="round" stroke-linejoin="round"/>
<path d="M477.581 347.912C477.581 347.912 479.924 331.802 478.511 315.478" stroke="#495F68" stroke-width="2" stroke-miterlimit="10" stroke-linecap="round" stroke-linejoin="round"/>
<path d="M481.657 342.887C481.657 342.887 483.202 328.553 480.78 316.774" stroke="#495F68" stroke-width="2" stroke-miterlimit="10" stroke-linecap="round" stroke-linejoin="round"/>
<path d="M437.708 259.822C437.708 259.822 435.483 248.242 435.321 239.934C435.06 231.625 433.124 221.826 433.124 221.826" stroke="#495F68" stroke-width="2" stroke-miterlimit="10" stroke-linecap="round" stroke-linejoin="round"/>
<path d="M441.479 256.871C441.479 256.871 439.266 242.522 437.569 223.13" stroke="#495F68" stroke-width="2" stroke-miterlimit="10" stroke-linecap="round" stroke-linejoin="round"/>
<path d="M507.768 250.629C507.768 250.629 505.75 236.775 504.348 217.879" stroke="#495F68" stroke-width="2" stroke-miterlimit="10" stroke-linecap="round" stroke-linejoin="round"/>
<path d="M511.249 246.292C511.249 246.292 509.831 230.957 507.118 217.891" stroke="#495F68" stroke-width="2" stroke-miterlimit="10" stroke-linecap="round" stroke-linejoin="round"/>
<path d="M472.496 173.634C472.496 173.634 472.161 159.391 464.625 141.063" stroke="#495F68" stroke-width="2" stroke-miterlimit="10" stroke-linecap="round" stroke-linejoin="round"/>
<path d="M477.357 170.193C477.357 170.193 475.254 153.471 467.301 139.986" stroke="#495F68" stroke-width="2" stroke-miterlimit="10" stroke-linecap="round" stroke-linejoin="round"/>
<path d="M414.977 187.232C414.977 187.232 410.959 178.611 407.846 166.532C406.582 161.582 405.426 154.259 404.655 149.508" stroke="#495F68" stroke-width="2" stroke-miterlimit="10" stroke-linecap="round" stroke-linejoin="round"/>
<path d="M418.354 183.687C418.354 183.687 410.424 164.961 407.221 150.706" stroke="#495F68" stroke-width="2" stroke-miterlimit="10" stroke-linecap="round" stroke-linejoin="round"/>
</g>
</svg>
